<svg width="549" height="210" viewBox="0 0 549 210" fill="none" xmlns="http://www.w3.org/2000/svg">
<rect width="548.29" height="209.43" fill="#282828"/>
<path d="M249.704 146.512C243.475 146.512 237.885 144.976 232.936 141.904C227.987 138.747 224.061 134.523 221.16 129.232C218.344 123.856 216.936 117.797 216.936 111.056C216.936 104.315 218.472 98.256 221.544 92.88C224.701 87.504 228.925 83.28 234.216 80.208C239.592 77.0507 245.608 75.472 252.264 75.472C258.92 75.472 264.893 77.0507 270.184 80.208C275.475 83.28 279.656 87.504 282.728 92.88C285.885 98.256 287.464 104.315 287.464 111.056H282.472C282.472 117.797 281.021 123.856 278.12 129.232C275.304 134.523 271.421 138.747 266.472 141.904C261.523 144.976 255.933 146.512 249.704 146.512ZM252.264 134.992C256.616 134.992 260.499 133.968 263.912 131.92C267.325 129.787 270.013 126.928 271.976 123.344C273.939 119.675 274.92 115.579 274.92 111.056C274.92 106.448 273.939 102.352 271.976 98.768C270.013 95.0987 267.325 92.24 263.912 90.192C260.499 88.0587 256.616 86.992 252.264 86.992C247.997 86.992 244.115 88.0587 240.616 90.192C237.203 92.24 234.472 95.0987 232.424 98.768C230.461 102.352 229.48 106.448 229.48 111.056C229.48 115.579 230.461 119.675 232.424 123.344C234.472 126.928 237.203 129.787 240.616 131.92C244.115 133.968 247.997 134.992 252.264 134.992ZM280.936 146.128C279.059 146.128 277.48 145.531 276.2 144.336C275.005 143.056 274.408 141.477 274.408 139.6V120.016L276.84 106.448L287.464 111.056V139.6C287.464 141.477 286.824 143.056 285.544 144.336C284.349 145.531 282.813 146.128 280.936 146.128ZM323.535 146C319.78 146 316.452 144.976 313.551 142.928C310.65 140.88 308.388 138.107 306.767 134.608C305.146 131.024 304.335 126.928 304.335 122.32V52.432C304.335 50.5547 304.932 49.0187 306.127 47.824C307.322 46.6293 308.858 46.032 310.735 46.032C312.612 46.032 314.148 46.6293 315.343 47.824C316.538 49.0187 317.135 50.5547 317.135 52.432V122.32C317.135 125.477 317.732 128.08 318.927 130.128C320.122 132.176 321.658 133.2 323.535 133.2H326.735C328.442 133.2 329.807 133.797 330.831 134.992C331.94 136.187 332.495 137.723 332.495 139.6C332.495 141.477 331.684 143.013 330.063 144.208C328.442 145.403 326.351 146 323.791 146H323.535ZM370.579 146.512C364.179 146.512 358.504 145.019 353.555 142.032C348.691 138.96 344.851 134.779 342.035 129.488C339.219 124.112 337.811 117.968 337.811 111.056C337.811 104.059 339.304 97.9147 342.291 92.624C345.363 87.248 349.544 83.0667 354.835 80.08C360.126 77.008 366.227 75.472 373.139 75.472C379.966 75.472 386.024 77.008 391.315 80.08C396.606 83.0667 400.744 87.248 403.731 92.624C406.803 97.9147 408.339 104.059 408.339 111.056H400.787C400.787 117.968 399.464 124.112 396.819 129.488C394.259 134.779 390.718 138.96 386.195 142.032C381.672 145.019 376.467 146.512 370.579 146.512ZM372.883 175.056C366.824 175.056 361.15 173.861 355.859 171.472C350.568 169.083 346.088 165.584 342.419 160.976C341.31 159.525 340.883 158.032 341.139 156.496C341.48 154.96 342.334 153.723 343.699 152.784C345.235 151.76 346.814 151.419 348.435 151.76C350.142 152.101 351.507 152.955 352.531 154.32C354.835 157.221 357.736 159.483 361.235 161.104C364.734 162.725 368.702 163.536 373.139 163.536C377.235 163.536 380.99 162.555 384.403 160.592C387.902 158.629 390.675 155.728 392.723 151.888C394.771 148.048 395.795 143.355 395.795 137.808V119.632L400.019 108.368L408.339 111.056V138.704C408.339 145.445 406.846 151.547 403.859 157.008C400.872 162.555 396.691 166.949 391.315 170.192C386.024 173.435 379.88 175.056 372.883 175.056ZM373.139 134.992C377.576 134.992 381.502 133.968 384.915 131.92C388.328 129.872 390.974 127.056 392.851 123.472C394.814 119.888 395.795 115.749 395.795 111.056C395.795 106.363 394.814 102.224 392.851 98.64C390.974 94.9707 388.328 92.112 384.915 90.064C381.502 88.016 377.576 86.992 373.139 86.992C368.702 86.992 364.776 88.016 361.363 90.064C357.95 92.112 355.262 94.9707 353.299 98.64C351.336 102.224 350.355 106.363 350.355 111.056C350.355 115.749 351.336 119.888 353.299 123.472C355.262 127.056 357.95 129.872 361.363 131.92C364.776 133.968 368.702 134.992 373.139 134.992ZM459.514 146.512C452.602 146.512 446.501 145.019 441.21 142.032C435.919 138.96 431.738 134.779 428.666 129.488C425.679 124.112 424.186 117.968 424.186 111.056C424.186 104.059 425.679 97.9147 428.666 92.624C431.738 87.248 435.919 83.0667 441.21 80.08C446.501 77.008 452.602 75.472 459.514 75.472C466.341 75.472 472.399 77.008 477.69 80.08C482.981 83.0667 487.119 87.248 490.106 92.624C493.178 97.9147 494.714 104.059 494.714 111.056C494.714 117.968 493.221 124.112 490.234 129.488C487.247 134.779 483.109 138.96 477.818 142.032C472.527 145.019 466.426 146.512 459.514 146.512ZM459.514 134.992C463.951 134.992 467.877 133.968 471.29 131.92C474.703 129.872 477.349 127.056 479.226 123.472C481.189 119.888 482.17 115.749 482.17 111.056C482.17 106.363 481.189 102.224 479.226 98.64C477.349 94.9707 474.703 92.112 471.29 90.064C467.877 88.016 463.951 86.992 459.514 86.992C455.077 86.992 451.151 88.016 447.738 90.064C444.325 92.112 441.637 94.9707 439.674 98.64C437.711 102.224 436.73 106.363 436.73 111.056C436.73 115.749 437.711 119.888 439.674 123.472C441.637 127.056 444.325 129.872 447.738 131.92C451.151 133.968 455.077 134.992 459.514 134.992Z" fill="white"/>
<path d="M249 135H287.46V139.5C287.46 143.366 284.326 146.5 280.46 146.5H249V135Z" fill="white"/>
<circle cx="105" cy="105" r="65" fill="#4C9AFF"/>
<path d="M65 105C65 82.9086 82.9086 65 105 65V65C127.091 65 145 82.9086 145 105V136C145 140.971 140.971 145 136 145H105C82.9086 145 65 127.091 65 105V105Z" fill="#282828"/>
<circle cx="105" cy="105" r="20" fill="#4C9AFF"/>
</svg>
