<?xml version="1.0" standalone="no"?>
<!DOCTYPE svg PUBLIC "-//W3C//DTD SVG 20010904//EN"
 "http://www.w3.org/TR/2001/REC-SVG-20010904/DTD/svg10.dtd">
<svg version="1.0" xmlns="http://www.w3.org/2000/svg"
 width="24pt" height="24pt" viewBox="0 0 200.000000 200.000000"
 preserveAspectRatio="xMidYMid meet">

<g transform="translate(0.000000,200.000000) scale(0.100000,-0.100000)"
fill="#000000" stroke="none">
<path d="M0 1000 l0 -1000 1000 0 1000 0 0 1000 0 1000 -1000 0 -1000 0 0
-1000z m910 60 l0 -250 -35 0 -35 0 0 250 0 250 35 0 35 0 0 -250z m-156 8
c21 -117 40 -223 43 -235 5 -21 1 -23 -30 -23 -37 0 -47 12 -47 56 0 22 -4 24
-44 24 -44 0 -44 0 -51 -40 -6 -38 -9 -40 -41 -40 -21 0 -34 5 -34 13 0 6 18
109 40 227 22 118 40 218 40 223 0 4 19 7 43 7 l43 0 38 -212z m341 116 c19
-10 31 -11 33 -5 2 6 15 11 28 11 l25 0 -3 -225 -3 -225 -27 -26 c-21 -22 -36
-27 -72 -27 -55 0 -86 23 -86 65 0 23 4 28 24 28 16 0 26 -7 29 -21 4 -16 12
-20 34 -17 26 3 28 7 31 52 3 44 1 48 -15 41 -43 -18 -53 -16 -82 12 -34 35
-47 105 -38 212 6 78 21 115 51 129 29 15 37 14 71 -4z m325 -19 c23 -24 25
-34 28 -137 6 -168 -19 -223 -99 -223 -55 0 -86 34 -100 110 -12 66 -7 171 12
224 22 62 108 77 159 26z"/>
<path d="M662 1100 c-7 -47 -15 -100 -19 -117 -5 -32 -4 -33 29 -33 l35 0 -13
93 c-7 50 -14 103 -16 117 -2 14 -9 -13 -16 -60z"/>
<path d="M1055 1128 c-3 -8 -4 -66 -3 -129 l3 -114 25 0 25 0 0 125 c0 122 -1
125 -23 128 -12 2 -24 -3 -27 -10z"/>
<path d="M1327 1134 c-9 -9 -9 -236 -1 -258 9 -24 43 -20 49 7 3 12 4 74 3
137 -3 107 -4 115 -23 118 -12 2 -24 0 -28 -4z"/>
</g>
</svg>
